
<?xml version="1.0" encoding="UTF-8"?>
<svg width="200" height="200" viewBox="0 0 24 24" xmlns="http://www.w3.org/2000/svg">
  <defs>
    <linearGradient id="koala-fur" x1="0%" y1="0%" x2="100%" y2="100%">
      <stop offset="0%" style="stop-color:#6b5a4e;stop-opacity:1" />
      <stop offset="100%" style="stop-color:#8d7963;stop-opacity:1" />
    </linearGradient>
    <linearGradient id="koala-ears" x1="0%" y1="0%" x2="100%" y2="100%">
      <stop offset="0%" style="stop-color:#a8957e;stop-opacity:1" />
      <stop offset="100%" style="stop-color:#c4b39d;stop-opacity:1" />
    </linearGradient>
  </defs>

  <!-- Koala body -->
  <path d="M12,2C8.69,2,6,4.69,6,8v5c0,2.21,1.79,4,4,4s4,-1.79,4,-4V8C18,4.69,15.31,2,12,2z"
        fill="url(#koala-fur)" stroke="#000" stroke-width="0.5"/>

  <!-- Koala ears -->
  <path d="M7,8c-1.66,0-3,1.34-3,3v2h2V11c0,-0.55,0.45,-1,1,-1s1,0.45,1,1v2h2V11C11,9.45,11.55,8,12,8"
        fill="url(#koala-ears)" stroke="#000" stroke-width="0.3"/>

  <!-- Koala face -->
  <circle cx="12" cy="12" r="3" fill="#6b5a4e" stroke="#000" stroke-width="0.3"/>
  <ellipse cx="12" cy="14" rx="2" ry="1" fill="#8d7963"/>

  <!-- Koala eyes -->
  <circle cx="11" cy="11" r="0.5" fill="#fff"/>
  <circle cx="13" cy="11" r="0.5" fill="#fff"/>
  <circle cx="11" cy="11" r="0.2" fill="#000"/>
  <circle cx="13" cy="11" r="0.2" fill="#000"/>

  <!-- Koala nose -->
  <polygon points="12,14 12.5,15 11.5,15" fill="#e67e22"/>

  <!-- Koala mouth (smile) -->
  <path d="M11,15c0,0,0.5,-0.5,1,-0.5s1,0.5,1,0.5"
        stroke="#000" stroke-width="0.3" fill="none"/>

  <!-- Koala arms -->
  <path d="M6,12c-1,0-2,0.5-2,1.5v1h4V13.5C8,12.5,7,12,6,12z"
        fill="#6b5a4e" stroke="#000" stroke-width="0.3"/>
  <path d="M18,12c1,0,2,0.5,2,1.5v1h-4V13.5C16,12.5,17,12,18,12z"
        fill="#6b5a4e" stroke="#000" stroke-width="0.3"/>

  <!-- Koala legs -->
  <path d="M8,19c-0.5,0-1,-0.5-1,-1v-2h2v1c0,0.55,0.45,1,1,1s1,-0.45,1,-1v-1h2v1c0,0.55,0.45,1,1,1s1,-0.45,1,-1v2c0,0.55,-0.45,1,-1,1H8z"
        fill="#6b5a4e" stroke="#000" stroke-width="0.3"/>

  <!-- Koala tail -->
  <path d="M17,19c-1,0-2,0.5-2,1v1h4v-1C19,19.5,18,19,17,19z"
        fill="#6b5a4e" stroke="#000" stroke-width="0.3"/>
</svg>
